<?xml version="1.0" encoding="UTF-8"?>
<!DOCTYPE svg PUBLIC "-//W3C//DTD SVG 1.1//EN" "http://www.w3.org/Graphics/SVG/1.1/DTD/svg11.dtd">
<svg xmlns="http://www.w3.org/2000/svg" version="1.1" width="24px" height="24px" style="shape-rendering:geometricPrecision; text-rendering:geometricPrecision; image-rendering:optimizeQuality; fill-rule:evenodd; clip-rule:evenodd" xmlns:xlink="http://www.w3.org/1999/xlink">
<g><path style="opacity:1" fill="#f6fefc" d="M -0.5,-0.5 C 2.5,-0.5 5.5,-0.5 8.5,-0.5C 8.5,0.166667 8.16667,0.5 7.5,0.5C 6.16667,1.16667 4.83333,1.83333 3.5,2.5C 2.29208,1.76589 0.95875,1.43255 -0.5,1.5C -0.5,0.833333 -0.5,0.166667 -0.5,-0.5 Z"/></g>
<g><path style="opacity:1" fill="#fafefd" d="M 8.5,-0.5 C 11.8333,-0.5 15.1667,-0.5 18.5,-0.5C 18.5,-0.166667 18.5,0.166667 18.5,0.5C 18.5,1.16667 18.5,1.83333 18.5,2.5C 18.1667,2.5 17.8333,2.5 17.5,2.5C 16.8333,-0.166667 16.1667,-0.166667 15.5,2.5C 12.3019,3.03562 9.63528,2.36895 7.5,0.5C 8.16667,0.5 8.5,0.166667 8.5,-0.5 Z"/></g>
<g><path style="opacity:1" fill="#fcfdfa" d="M 18.5,0.5 C 18.5,0.166667 18.5,-0.166667 18.5,-0.5C 20.1667,-0.5 21.8333,-0.5 23.5,-0.5C 23.5,0.833333 23.5,2.16667 23.5,3.5C 21.9991,2.24848 20.3325,1.24848 18.5,0.5 Z"/></g>
<g><path style="opacity:1" fill="#7f8991" d="M 7.5,0.5 C 9.63528,2.36895 12.3019,3.03562 15.5,2.5C 15.5,3.16667 15.5,3.83333 15.5,4.5C 14.8333,4.5 14.1667,4.5 13.5,4.5C 10.6965,3.36216 7.69646,3.19549 4.5,4C 3.20891,5.29167 3.20891,6.45834 4.5,7.5C 4.5,8.5 4.5,9.5 4.5,10.5C 4.5,11.5 4.5,12.5 4.5,13.5C 3.83333,13.5 3.16667,13.5 2.5,13.5C 2.5,12.5 2.5,11.5 2.5,10.5C 2.5,9.5 2.5,8.5 2.5,7.5C 2.36596,5.70848 2.69929,4.04181 3.5,2.5C 4.83333,1.83333 6.16667,1.16667 7.5,0.5 Z"/></g>
<g><path style="opacity:1" fill="#f3fafd" d="M 18.5,0.5 C 20.3325,1.24848 21.9991,2.24848 23.5,3.5C 23.5,3.83333 23.5,4.16667 23.5,4.5C 22.8571,6.07641 21.8571,7.40974 20.5,8.5C 20.5,8.16667 20.5,7.83333 20.5,7.5C 20.8799,5.30202 20.2132,3.63535 18.5,2.5C 18.5,1.83333 18.5,1.16667 18.5,0.5 Z"/></g>
<g><path style="opacity:1" fill="#7a889b" d="M 17.5,2.5 C 17.8333,2.5 18.1667,2.5 18.5,2.5C 20.2132,3.63535 20.8799,5.30202 20.5,7.5C 19.8333,7.5 19.1667,7.5 18.5,7.5C 17.5,7.5 16.5,7.5 15.5,7.5C 15.5,7.16667 15.5,6.83333 15.5,6.5C 16.675,6.71901 17.675,6.38568 18.5,5.5C 17.8728,4.58317 17.5394,3.58317 17.5,2.5 Z"/></g>
<g><path style="opacity:1" fill="#f7f9fc" d="M -0.5,1.5 C 0.95875,1.43255 2.29208,1.76589 3.5,2.5C 2.69929,4.04181 2.36596,5.70848 2.5,7.5C 1.60895,6.89022 0.608953,6.55688 -0.5,6.5C -0.5,4.83333 -0.5,3.16667 -0.5,1.5 Z"/></g>
<g><path style="opacity:1" fill="#748aa0" d="M 13.5,4.5 C 11.076,4.19244 8.74269,4.52577 6.5,5.5C 9.42814,6.48408 12.4281,6.81741 15.5,6.5C 15.5,6.83333 15.5,7.16667 15.5,7.5C 11.8333,7.5 8.16667,7.5 4.5,7.5C 3.20891,6.45834 3.20891,5.29167 4.5,4C 7.69646,3.19549 10.6965,3.36216 13.5,4.5 Z"/></g>
<g><path style="opacity:1" fill="#6f8ab1" d="M 13.5,4.5 C 14.1667,4.5 14.8333,4.5 15.5,4.5C 15.5,5.16667 15.5,5.83333 15.5,6.5C 12.4281,6.81741 9.42814,6.48408 6.5,5.5C 8.74269,4.52577 11.076,4.19244 13.5,4.5 Z"/></g>
<g><path style="opacity:1" fill="#7789a2" d="M 17.5,2.5 C 17.5394,3.58317 17.8728,4.58317 18.5,5.5C 17.675,6.38568 16.675,6.71901 15.5,6.5C 15.5,5.83333 15.5,5.16667 15.5,4.5C 15.5,3.83333 15.5,3.16667 15.5,2.5C 16.1667,-0.166667 16.8333,-0.166667 17.5,2.5 Z"/></g>
<g><path style="opacity:1" fill="#fbfefd" d="M 23.5,4.5 C 23.5,7.5 23.5,10.5 23.5,13.5C 22.7784,13.0825 22.2784,12.4158 22,11.5C 21.6174,12.056 21.1174,12.3893 20.5,12.5C 20.5,11.1667 20.5,9.83333 20.5,8.5C 21.8571,7.40974 22.8571,6.07641 23.5,4.5 Z"/></g>
<g><path style="opacity:1" fill="#fdfbfe" d="M -0.5,6.5 C 0.608953,6.55688 1.60895,6.89022 2.5,7.5C 2.5,8.5 2.5,9.5 2.5,10.5C 1.39105,10.5569 0.391047,10.8902 -0.5,11.5C -0.5,9.83333 -0.5,8.16667 -0.5,6.5 Z"/></g>
<g><path style="opacity:1" fill="#f7fdfe" d="M 4.5,7.5 C 8.16667,7.5 11.8333,7.5 15.5,7.5C 15.5,7.83333 15.5,8.16667 15.5,8.5C 13.1432,8.33669 10.8098,8.50335 8.5,9C 7.74756,9.67076 7.41423,10.5041 7.5,11.5C 6.60895,10.8902 5.60895,10.5569 4.5,10.5C 4.5,9.5 4.5,8.5 4.5,7.5 Z"/></g>
<g><path style="opacity:1" fill="#fdfbee" d="M 15.5,8.5 C 14.5525,9.97789 13.2191,10.9779 11.5,11.5C 10.1667,11.5 8.83333,11.5 7.5,11.5C 7.41423,10.5041 7.74756,9.67076 8.5,9C 10.8098,8.50335 13.1432,8.33669 15.5,8.5 Z"/></g>
<g><path style="opacity:1" fill="#f8fefd" d="M 4.5,10.5 C 5.60895,10.5569 6.60895,10.8902 7.5,11.5C 8.83333,11.5 10.1667,11.5 11.5,11.5C 11.5,13.1667 11.5,14.8333 11.5,16.5C 9.57134,15.9937 7.90468,14.9937 6.5,13.5C 5.81654,13.8627 5.14987,14.1961 4.5,14.5C 4.5,14.1667 4.5,13.8333 4.5,13.5C 4.5,12.5 4.5,11.5 4.5,10.5 Z"/></g>
<g><path style="opacity:1" fill="#f3fcfd" d="M 15.5,7.5 C 16.5,7.5 17.5,7.5 18.5,7.5C 18.5,10.8333 18.5,14.1667 18.5,17.5C 18.5,18.1667 18.1667,18.5 17.5,18.5C 17.6716,17.5084 17.3382,16.8417 16.5,16.5C 16.7845,14.5853 16.4511,12.9187 15.5,11.5C 14.5,11.5 13.5,11.5 12.5,11.5C 12.1667,11.5 11.8333,11.5 11.5,11.5C 13.2191,10.9779 14.5525,9.97789 15.5,8.5C 15.5,8.16667 15.5,7.83333 15.5,7.5 Z"/></g>
<g><path style="opacity:1" fill="#f6fdfe" d="M 23.5,13.5 C 23.5,15.1667 23.5,16.8333 23.5,18.5C 22.391,18.5569 21.391,18.8902 20.5,19.5C 20.5,18.1667 20.5,16.8333 20.5,15.5C 20.5,14.5 20.5,13.5 20.5,12.5C 21.1174,12.3893 21.6174,12.056 22,11.5C 22.2784,12.4158 22.7784,13.0825 23.5,13.5 Z"/></g>
<g><path style="opacity:1" fill="#818a8f" d="M 18.5,7.5 C 19.1667,7.5 19.8333,7.5 20.5,7.5C 20.5,7.83333 20.5,8.16667 20.5,8.5C 20.5,9.83333 20.5,11.1667 20.5,12.5C 20.5,13.5 20.5,14.5 20.5,15.5C 19.8333,16.1667 19.1667,16.8333 18.5,17.5C 18.5,14.1667 18.5,10.8333 18.5,7.5 Z"/></g>
<g><path style="opacity:1" fill="#f8fcfd" d="M 2.5,10.5 C 2.5,11.5 2.5,12.5 2.5,13.5C 2.5,15.5 2.5,17.5 2.5,19.5C 1.95691,19.56 1.62358,19.8933 1.5,20.5C 2.61191,21.2652 3.27858,22.2652 3.5,23.5C 2.16667,23.5 0.833333,23.5 -0.5,23.5C -0.5,19.5 -0.5,15.5 -0.5,11.5C 0.391047,10.8902 1.39105,10.5569 2.5,10.5 Z"/></g>
<g><path style="opacity:1" fill="#f7fcfe" d="M 11.5,16.5 C 11.5,17.1667 11.5,17.8333 11.5,18.5C 9.16667,18.5 6.83333,18.5 4.5,18.5C 4.5,17.1667 4.5,15.8333 4.5,14.5C 5.14987,14.1961 5.81654,13.8627 6.5,13.5C 7.90468,14.9937 9.57134,15.9937 11.5,16.5 Z"/></g>
<g><path style="opacity:1" fill="#79868f" d="M 11.5,11.5 C 11.8333,11.5 12.1667,11.5 12.5,11.5C 12.2222,13.3464 12.8888,14.6798 14.5,15.5C 15.4287,14.3112 15.762,12.9778 15.5,11.5C 16.4511,12.9187 16.7845,14.5853 16.5,16.5C 14.8333,16.5 13.1667,16.5 11.5,16.5C 11.5,14.8333 11.5,13.1667 11.5,11.5 Z"/></g>
<g><path style="opacity:1" fill="#7387aa" d="M 12.5,11.5 C 13.5,11.5 14.5,11.5 15.5,11.5C 15.762,12.9778 15.4287,14.3112 14.5,15.5C 12.8888,14.6798 12.2222,13.3464 12.5,11.5 Z"/></g>
<g><path style="opacity:1" fill="#818890" d="M 2.5,13.5 C 3.16667,13.5 3.83333,13.5 4.5,13.5C 4.5,13.8333 4.5,14.1667 4.5,14.5C 4.5,15.8333 4.5,17.1667 4.5,18.5C 6.83333,18.5 9.16667,18.5 11.5,18.5C 12.8333,18.5 14.1667,18.5 15.5,18.5C 15.8333,19.1667 16.1667,19.8333 16.5,20.5C 15.1667,20.5 13.8333,20.5 12.5,20.5C 11.1667,20.5 9.83333,20.5 8.5,20.5C 6.3792,20.6747 4.3792,20.3414 2.5,19.5C 2.5,17.5 2.5,15.5 2.5,13.5 Z"/></g>
<g><path style="opacity:1" fill="#f1fbfe" d="M 11.5,16.5 C 13.1667,16.5 14.8333,16.5 16.5,16.5C 17.3382,16.8417 17.6716,17.5084 17.5,18.5C 16.8333,18.5 16.1667,18.5 15.5,18.5C 14.1667,18.5 12.8333,18.5 11.5,18.5C 11.5,17.8333 11.5,17.1667 11.5,16.5 Z"/></g>
<g><path style="opacity:1" fill="#7f8a8d" d="M 20.5,15.5 C 20.5,16.8333 20.5,18.1667 20.5,19.5C 19.609,20.1098 18.609,20.4431 17.5,20.5C 17.1667,20.5 16.8333,20.5 16.5,20.5C 16.1667,19.8333 15.8333,19.1667 15.5,18.5C 16.1667,18.5 16.8333,18.5 17.5,18.5C 18.1667,18.5 18.5,18.1667 18.5,17.5C 19.1667,16.8333 19.8333,16.1667 20.5,15.5 Z"/></g>
<g><path style="opacity:1" fill="#f4fafd" d="M 2.5,19.5 C 4.3792,20.3414 6.3792,20.6747 8.5,20.5C 7.16667,21.5 7.16667,22.5 8.5,23.5C 6.83333,23.5 5.16667,23.5 3.5,23.5C 3.27858,22.2652 2.61191,21.2652 1.5,20.5C 1.62358,19.8933 1.95691,19.56 2.5,19.5 Z"/></g>
<g><path style="opacity:1" fill="#fbfdfe" d="M 8.5,20.5 C 9.83333,20.5 11.1667,20.5 12.5,20.5C 11.1667,21.5 11.1667,22.5 12.5,23.5C 11.1667,23.5 9.83333,23.5 8.5,23.5C 7.16667,22.5 7.16667,21.5 8.5,20.5 Z"/></g>
<g><path style="opacity:1" fill="#f5fdfe" d="M 12.5,20.5 C 13.8333,20.5 15.1667,20.5 16.5,20.5C 16.8333,20.5 17.1667,20.5 17.5,20.5C 17.4431,21.609 17.1098,22.609 16.5,23.5C 15.1667,23.5 13.8333,23.5 12.5,23.5C 11.1667,22.5 11.1667,21.5 12.5,20.5 Z"/></g>
<g><path style="opacity:1" fill="#f8fcfc" d="M 23.5,18.5 C 23.5,20.1667 23.5,21.8333 23.5,23.5C 21.1667,23.5 18.8333,23.5 16.5,23.5C 17.1098,22.609 17.4431,21.609 17.5,20.5C 18.609,20.4431 19.609,20.1098 20.5,19.5C 21.391,18.8902 22.391,18.5569 23.5,18.5 Z"/></g>
</svg>
