<svg width="126" height="126" viewBox="0 0 126 126" fill="none" xmlns="http://www.w3.org/2000/svg">
<circle cx="62.8325" cy="62.8325" r="62.8325" fill="url(#paint0_linear_30_17)"/>
<path d="M91.0443 69.9101H35.9336C29.9947 69.9101 25.1328 74.5875 25.1328 80.3125C25.1328 86.0302 29.9947 90.715 35.9336 90.715H91.0443C96.9833 90.715 101.845 86.0376 101.845 80.3125C101.852 74.5875 96.9906 69.9101 91.0443 69.9101Z" fill="#EDC391"/>
<path d="M92.8237 43.4631C85.7338 32.6771 76.5929 28.9883 63.3133 28.9883C50.0336 28.9883 40.8927 32.6697 33.8029 43.4631C28.609 51.3719 27.3548 63.8032 28.9558 76.6107C30.4977 88.9239 31.774 95.6818 39.4172 102.58C46.0571 108.57 55.0725 109.862 62.8042 109.862H63.8223C71.554 109.862 80.5769 108.57 87.2093 102.58C94.8525 95.6818 96.1288 88.9239 97.6707 76.6107C99.2717 63.8032 98.0175 51.3645 92.8237 43.4631Z" fill="#F7DECE"/>
<path d="M74.3034 44.6416C74.4067 44.5309 74.51 44.4276 74.6133 44.3169C74.6871 44.2358 74.7608 44.1473 74.8346 44.0661C75.0043 43.8669 75.1666 43.6677 75.3215 43.4611L75.3879 43.3726C75.5355 43.1734 75.6683 42.9668 75.8011 42.7529C75.838 42.6939 75.8749 42.6275 75.9117 42.5684C76.0372 42.3545 76.1626 42.1405 76.2806 41.9118C76.3028 41.875 76.3175 41.8454 76.3323 41.8086C76.6126 41.2552 76.8561 40.6576 77.0553 40.0306L77.0774 39.9642C77.4832 38.6583 77.7193 37.2049 77.7193 35.5671C77.7193 32.2915 76.5388 29.7019 74.7387 27.7468C74.7166 27.7247 74.7018 27.71 74.6871 27.6878C74.5469 27.5403 74.3993 27.3927 74.2518 27.2452L74.1632 27.1566C73.9915 26.9933 73.8144 26.8359 73.6321 26.6845C73.4845 26.5591 73.337 26.441 73.1894 26.323C73.1525 26.2935 73.1156 26.2713 73.0861 26.2418L72.5992 25.8877C72.5697 25.8729 72.5476 25.8508 72.518 25.8361C71.9278 25.4377 71.3155 25.0835 70.681 24.7811C70.6589 24.7663 70.6294 24.7589 70.6072 24.7442C70.4228 24.6556 70.2384 24.5745 70.0539 24.4933L69.8842 24.4196C69.7219 24.3532 69.5596 24.2868 69.3973 24.2277C69.3383 24.2056 69.2719 24.1835 69.2129 24.1613C69.0579 24.1023 68.903 24.0507 68.7555 23.999L68.5563 23.9326C68.4013 23.881 68.2538 23.8367 68.0989 23.7925C68.0325 23.7703 67.9661 23.7556 67.8923 23.7334C67.7374 23.6892 67.5824 23.6523 67.4275 23.6154L67.2357 23.5711C67.066 23.5342 66.8963 23.4974 66.734 23.4605C66.6824 23.4531 66.6307 23.4383 66.5791 23.431C66.1438 23.335 65.7085 23.2686 65.2732 23.217C65.2142 23.2096 65.1552 23.2096 65.0962 23.2022C64.9412 23.1875 64.7937 23.1727 64.6388 23.1654C64.5502 23.158 64.4691 23.158 64.3805 23.1506C64.2551 23.1432 64.1371 23.1358 64.019 23.1358C63.9231 23.1358 63.8272 23.1285 63.7239 23.1285C63.6575 23.1285 63.5911 23.1211 63.5321 23.1211H63.4583C63.1411 23.1211 62.8239 23.1358 62.514 23.158C62.455 23.1654 62.396 23.1654 62.337 23.1727C62.0197 23.2022 61.7099 23.2318 61.4148 23.2834C57.7924 23.8736 54.8634 25.777 53.0338 27.6362C51.9345 28.7502 51.2337 29.8495 51.0197 30.6389H51.0271C53.3732 30.0413 56.4054 29.5175 59.7843 29.3404C64.3584 29.0232 68.18 31.6275 67.9956 35.6261C67.9734 36.1057 67.9144 36.5557 67.8333 36.9762L67.8111 37.1016C67.7742 37.264 67.73 37.4263 67.6857 37.5812C67.6636 37.655 67.6414 37.7287 67.6267 37.7951C67.5824 37.9279 67.5382 38.0607 67.4865 38.1935C67.457 38.2747 67.4201 38.3558 67.3832 38.437C67.3316 38.555 67.2799 38.6657 67.2283 38.769C67.184 38.8575 67.1398 38.9387 67.0881 39.0198C67.0365 39.1157 66.9775 39.2116 66.9184 39.3002C66.8594 39.3887 66.793 39.4772 66.734 39.5658C66.6824 39.6395 66.6307 39.7133 66.5717 39.7871C66.4758 39.9051 66.3725 40.0158 66.2692 40.1191C66.2397 40.1486 66.2102 40.1855 66.1807 40.215C66.0405 40.3552 65.893 40.4806 65.738 40.606C65.7085 40.6281 65.6716 40.6503 65.6421 40.6724C65.5165 40.77 65.386 40.8611 65.2511 40.9454C65.2068 40.9675 65.17 40.997 65.1257 41.0192C64.9929 41.1003 64.8601 41.1741 64.7273 41.2405C64.683 41.2626 64.6461 41.2847 64.6019 41.2995C64.4617 41.3659 64.3142 41.4323 64.1592 41.4913C64.1297 41.5061 64.0928 41.5208 64.0559 41.5282C63.8863 41.5946 63.7166 41.6536 63.5395 41.7053C63.5247 41.7126 63.51 41.7126 63.4952 41.72C62.6985 41.9561 61.8427 42.0594 60.9721 42.0594C58.3457 42.0594 55.6233 41.0856 54.0593 39.6912C53.93 39.5736 53.7619 39.5079 53.5871 39.5067C53.5502 39.5067 53.5133 39.5215 53.4838 39.5289C53.4543 39.5363 53.4174 39.5363 53.3879 39.551C53.3437 39.5658 53.2994 39.5805 53.2551 39.6027C53.1814 39.6395 53.1223 39.6838 53.0633 39.7355C53.0486 39.7502 53.0412 39.765 53.0264 39.7797C52.9748 39.8387 52.9305 39.9125 52.8936 39.9863C52.8862 40.001 52.8862 40.0084 52.8789 40.0232C52.842 40.1191 52.8198 40.2297 52.8346 40.3478C53.0559 42.5758 54.4577 45.3646 57.7924 47.4598C60.9647 49.4591 67.6414 49.4813 72.3926 46.2277L72.5254 46.1392C72.6656 46.0359 72.8131 45.9326 72.9533 45.8294C73.0123 45.7851 73.0787 45.7334 73.1378 45.6818C73.3443 45.5195 73.5435 45.3498 73.7353 45.1727L74.0231 44.9072C74.1264 44.826 74.2149 44.7301 74.3034 44.6416Z" fill="#312D2D"/>
<path d="M74.3034 44.6416C74.4067 44.5309 74.51 44.4276 74.6133 44.3169C74.6871 44.2358 74.7608 44.1473 74.8346 44.0661C75.0043 43.8669 75.1666 43.6677 75.3215 43.4611L75.3879 43.3726C75.5355 43.1734 75.6683 42.9668 75.8011 42.7529C75.838 42.6939 75.8749 42.6275 75.9117 42.5684C76.0372 42.3545 76.1626 42.1405 76.2806 41.9118C76.3028 41.875 76.3175 41.8454 76.3323 41.8086C76.6126 41.2552 76.8561 40.6576 77.0553 40.0306L77.0774 39.9642C77.4832 38.6583 77.7193 37.2049 77.7193 35.5671C77.7193 32.2915 76.5388 29.7019 74.7387 27.7468C74.7166 27.7247 74.7018 27.71 74.6871 27.6878C74.5469 27.5403 74.3993 27.3927 74.2518 27.2452L74.1632 27.1566C73.9915 26.9933 73.8144 26.8359 73.6321 26.6845C73.4845 26.5591 73.337 26.441 73.1894 26.323C73.1525 26.2935 73.1156 26.2713 73.0861 26.2418L72.5992 25.8877C72.5697 25.8729 72.5476 25.8508 72.518 25.8361C71.9278 25.4377 71.3155 25.0835 70.681 24.7811C70.6589 24.7663 70.6294 24.7589 70.6072 24.7442C70.4228 24.6556 70.2384 24.5745 70.0539 24.4933L69.8842 24.4196C69.7219 24.3532 69.5596 24.2868 69.3973 24.2277C69.3383 24.2056 69.2719 24.1835 69.2129 24.1613C69.0579 24.1023 68.903 24.0507 68.7555 23.999L68.5563 23.9326C68.4013 23.881 68.2538 23.8367 68.0989 23.7925C68.0325 23.7703 67.9661 23.7556 67.8923 23.7334C67.7374 23.6892 67.5824 23.6523 67.4275 23.6154L67.2357 23.5711C67.066 23.5342 66.8963 23.4974 66.734 23.4605C66.6824 23.4531 66.6307 23.4383 66.5791 23.431C66.1438 23.335 65.7085 23.2686 65.2732 23.217C65.2142 23.2096 65.1552 23.2096 65.0962 23.2022C64.9412 23.1875 64.7937 23.1727 64.6388 23.1654C64.5502 23.158 64.4691 23.158 64.3805 23.1506C64.2551 23.1432 64.1371 23.1358 64.019 23.1358C63.9231 23.1358 63.8272 23.1285 63.7239 23.1285C63.6575 23.1285 63.5911 23.1211 63.5321 23.1211H63.4583C63.1411 23.1211 62.8239 23.1358 62.514 23.158C62.455 23.1654 62.396 23.1654 62.337 23.1727C62.0197 23.2022 61.7099 23.2318 61.4148 23.2834C57.7924 23.8736 54.8634 25.777 53.0338 27.6362C51.9345 28.7502 51.2337 29.8495 51.0197 30.6389H51.0271C53.3732 30.0413 56.4054 29.5175 59.7843 29.3404C64.3584 29.0232 68.18 31.6275 67.9956 35.6261C67.9734 36.1057 67.9144 36.5557 67.8333 36.9762L67.8111 37.1016C67.7742 37.264 67.73 37.4263 67.6857 37.5812C67.6636 37.655 67.6414 37.7287 67.6267 37.7951C67.5824 37.9279 67.5382 38.0607 67.4865 38.1935C67.457 38.2747 67.4201 38.3558 67.3832 38.437C67.3316 38.555 67.2799 38.6657 67.2283 38.769C67.184 38.8575 67.1398 38.9387 67.0881 39.0198C67.0365 39.1157 66.9775 39.2116 66.9184 39.3002C66.8594 39.3887 66.793 39.4772 66.734 39.5658C66.6824 39.6395 66.6307 39.7133 66.5717 39.7871C66.4758 39.9051 66.3725 40.0158 66.2692 40.1191C66.2397 40.1486 66.2102 40.1855 66.1807 40.215C66.0405 40.3552 65.893 40.4806 65.738 40.606C65.7085 40.6281 65.6716 40.6503 65.6421 40.6724C65.5165 40.77 65.386 40.8611 65.2511 40.9454C65.2068 40.9675 65.17 40.997 65.1257 41.0192C64.9929 41.1003 64.8601 41.1741 64.7273 41.2405C64.683 41.2626 64.6461 41.2847 64.6019 41.2995C64.4617 41.3659 64.3142 41.4323 64.1592 41.4913C64.1297 41.5061 64.0928 41.5208 64.0559 41.5282C63.8863 41.5946 63.7166 41.6536 63.5395 41.7053C63.5247 41.7126 63.51 41.7126 63.4952 41.72C62.6985 41.9561 61.8427 42.0594 60.9721 42.0594C58.3457 42.0594 55.6233 41.0856 54.0593 39.6912C53.93 39.5736 53.7619 39.5079 53.5871 39.5067C53.5502 39.5067 53.5133 39.5215 53.4838 39.5289C53.4543 39.5363 53.4174 39.5363 53.3879 39.551C53.3437 39.5658 53.2994 39.5805 53.2551 39.6027C53.1814 39.6395 53.1223 39.6838 53.0633 39.7355C53.0486 39.7502 53.0412 39.765 53.0264 39.7797C52.9748 39.8387 52.9305 39.9125 52.8936 39.9863C52.8862 40.001 52.8862 40.0084 52.8789 40.0232C52.842 40.1191 52.8198 40.2297 52.8346 40.3478C53.0559 42.5758 54.4577 45.3646 57.7924 47.4598C60.9647 49.4591 67.6414 49.4813 72.3926 46.2277L72.5254 46.1392C72.6656 46.0359 72.8131 45.9326 72.9533 45.8293C73.0123 45.7851 73.0787 45.7334 73.1378 45.6818C73.3443 45.5195 73.5435 45.3498 73.7353 45.1727L74.0231 44.9071C74.1264 44.826 74.2149 44.7301 74.3034 44.6416Z" fill="#315786"/>
<path d="M67.3352 80.296C67.236 80.2553 67.1318 80.228 67.0253 80.2148H60.1641C60.0609 80.2296 59.9576 80.2517 59.8543 80.296C59.2346 80.5468 58.8878 81.1961 59.1829 81.8748C59.478 82.5609 60.8429 84.4865 63.5947 84.4865C66.3466 84.4865 67.7114 82.5609 68.0065 81.8748C68.2943 81.1887 67.9549 80.5468 67.3352 80.296Z" fill="#DBA689"/>
<path d="M47.4506 80.971C50.0909 80.971 52.2313 78.7547 52.2313 76.0207C52.2313 73.2867 50.0909 71.0703 47.4506 71.0703C44.8103 71.0703 42.6699 73.2867 42.6699 76.0207C42.6699 78.7547 44.8103 80.971 47.4506 80.971Z" fill="#312D2D"/>
<path d="M79.7045 80.971C82.3448 80.971 84.4852 78.7547 84.4852 76.0207C84.4852 73.2867 82.3448 71.0703 79.7045 71.0703C77.0642 71.0703 74.9238 73.2867 74.9238 76.0207C74.9238 78.7547 77.0642 80.971 79.7045 80.971Z" fill="#312D2D"/>
<path d="M70.4662 90.5754C67.8102 92.1542 59.1047 92.1542 56.4561 90.5754C54.9289 89.6679 53.3723 91.0549 54.0067 92.4419C54.6264 93.8068 59.3776 96.9644 63.4869 96.9644C67.5889 96.9644 72.281 93.8068 72.9008 92.4419C73.5279 91.0549 71.9859 89.6679 70.4662 90.5754Z" fill="#444444"/>
<defs>
<linearGradient id="paint0_linear_30_17" x1="62.8325" y1="0" x2="62.8325" y2="125.665" gradientUnits="userSpaceOnUse">
<stop stop-color="#AFC1DC"/>
<stop offset="1" stop-color="#E2E5ED"/>
</linearGradient>
</defs>
</svg>
